<?xml version="1.0" encoding="utf-8"?>
<!-- Generator: Adobe Illustrator 24.3.0, SVG Export Plug-In . SVG Version: 6.00 Build 0)  -->
<svg version="1.1" id="Capa_1" xmlns="http://www.w3.org/2000/svg" xmlns:xlink="http://www.w3.org/1999/xlink" x="0px" y="0px"
	 viewBox="0 0 64 80" style="enable-background:new 0 0 64 80;" xml:space="preserve">
<style type="text/css">
	.st0{fill:#F9AF0E;}
</style>
<g>
	<g>
		<path class="st0" d="M17,64.7V9.6c0-1.3-1.1-2.4-2.4-2.4s-2.4,1.1-2.4,2.4v55.2l-6.5-6.5c-1-1-2.5-1-3.5,0s-1,2.5,0,3.5l10.7,10.7
			c0.1,0.1,0.2,0.2,0.4,0.3c0.1,0,0.1,0.1,0.2,0.1c0.1,0,0.2,0.1,0.2,0.1c0.1,0,0.2,0.1,0.2,0.1c0.1,0,0.1,0,0.2,0.1
			c0.3,0.1,0.6,0.1,1,0c0.1,0,0.1,0,0.2-0.1c0.1,0,0.2,0,0.2-0.1c0.1,0,0.2-0.1,0.2-0.1c0.1,0,0.1-0.1,0.2-0.1
			c0.1-0.1,0.3-0.2,0.4-0.3L27,61.7c1-1,1-2.5,0-3.5c-0.5-0.5-1.1-0.7-1.7-0.7s-1.3,0.2-1.7,0.7L17,64.7z"/>
		<path class="st0" d="M62.5,49.7c0-1.3-1.1-2.4-2.4-2.4H21.9c-1.3,0-2.4,1.1-2.4,2.4c0,1.3,1.1,2.4,2.4,2.4h38.2
			C61.4,52.2,62.5,51.1,62.5,49.7z"/>
		<path class="st0" d="M55.8,38.1c0-1.3-1.1-2.4-2.4-2.4H21.9c-1.3,0-2.4,1.1-2.4,2.4c0,1.3,1.1,2.4,2.4,2.4h31.5
			C54.7,40.6,55.8,39.5,55.8,38.1z"/>
		<path class="st0" d="M49.1,26.5c0-1.3-1.1-2.4-2.4-2.4H21.9c-1.3,0-2.4,1.1-2.4,2.4s1.1,2.4,2.4,2.4h24.7
			C48,29,49.1,27.9,49.1,26.5z"/>
		<path class="st0" d="M42.4,14.9c0-1.3-1.1-2.4-2.4-2.4H22c-1.3,0-2.4,1.1-2.4,2.4s1.1,2.4,2.4,2.4h18
			C41.3,17.3,42.4,16.3,42.4,14.9z"/>
	</g>
</g>
</svg>
