<?xml version="1.0" encoding="utf-8"?>
<!-- Generator: Adobe Illustrator 24.3.0, SVG Export Plug-In . SVG Version: 6.00 Build 0)  -->
<svg version="1.1" id="Capa_1" xmlns="http://www.w3.org/2000/svg" xmlns:xlink="http://www.w3.org/1999/xlink" x="0px" y="0px"
	 viewBox="0 0 64 80" style="enable-background:new 0 0 64 80;" xml:space="preserve">
<style type="text/css">
	.st0{fill:#F9AF15;}
</style>
<g>
	<g>
		<path class="st0" d="M23.6,22.9c0.5,0.5,1.1,0.7,1.7,0.7s1.3-0.2,1.7-0.7c1-1,1-2.5,0-3.5L16.3,8.8c-0.1-0.1-0.2-0.2-0.4-0.3
			c-0.1,0-0.1-0.1-0.2-0.1c-0.1,0-0.2-0.1-0.2-0.1c-0.1,0-0.2-0.1-0.2-0.1c-0.1,0-0.1,0-0.2-0.1c-0.3-0.1-0.6-0.1-1,0
			c-0.1,0-0.1,0-0.2,0.1c-0.1,0-0.2,0-0.2,0.1c-0.1,0-0.2,0.1-0.2,0.1c-0.1,0-0.1,0.1-0.2,0.1c-0.1,0.1-0.3,0.2-0.4,0.3L2.2,19.4
			c-1,1-1,2.5,0,3.5s2.5,1,3.5,0l6.5-6.5v55.2c0,1.3,1.1,2.4,2.4,2.4s2.4-1.1,2.4-2.4V16.4L23.6,22.9z"/>
		<path class="st0" d="M60.1,29H21.9c-1.3,0-2.4,1.1-2.4,2.4c0,1.3,1.1,2.4,2.4,2.4h38.2c1.3,0,2.4-1.1,2.4-2.4S61.4,29,60.1,29z"/>
		<path class="st0" d="M53.4,40.6H21.9c-1.3,0-2.4,1.1-2.4,2.4c0,1.3,1.1,2.4,2.4,2.4h31.5c1.3,0,2.4-1.1,2.4-2.4
			C55.8,41.7,54.7,40.6,53.4,40.6z"/>
		<path class="st0" d="M46.6,52.2H21.9c-1.3,0-2.4,1.1-2.4,2.4c0,1.3,1.1,2.4,2.4,2.4h24.7c1.3,0,2.4-1.1,2.4-2.4
			C49.1,53.3,48,52.2,46.6,52.2z"/>
		<path class="st0" d="M39.9,63.8h-18c-1.3,0-2.4,1.1-2.4,2.4c0,1.3,1.1,2.4,2.4,2.4h18c1.3,0,2.4-1.1,2.4-2.4
			C42.4,64.9,41.3,63.8,39.9,63.8z"/>
	</g>
</g>
</svg>
